<?xml version="1.0" encoding="UTF-8" standalone="no"?>
<svg width="508mm" height="229.306mm"
 viewBox="0 0 1440 650"
 xmlns="http://www.w3.org/2000/svg" xmlns:xlink="http://www.w3.org/1999/xlink"  version="1.2" baseProfile="tiny">
<title>Qt SVG Document</title>
<desc>MATLAB, The MathWorks, Inc. Version 25.2.0.2998904 R2025b</desc>
<defs>
</defs>
<g fill="none" stroke="black" stroke-width="1" fill-rule="evenodd" stroke-linecap="square" stroke-linejoin="bevel" >

<g fill="#ffffff" fill-opacity="1" stroke="none" transform="matrix(0.5,0,0,0.5,0,0)"
font-family="MS Shell Dlg 2" font-size="8" font-weight="400" font-style="normal" 
>
<path vector-effect="none" fill-rule="evenodd" d="M0,0 L2881,0 L2881,1300 L0,1300 L0,0"/>
</g>

<g fill="#ffffff" fill-opacity="1" stroke="none" transform="matrix(5e-05,0,0,5e-05,0,0)"
font-family="MS Shell Dlg 2" font-size="8" font-weight="400" font-style="normal" 
>
<path vector-effect="none" fill-rule="evenodd" d="M3.74e+06,970000 L3.74e+06,1.156e+07 L2.606e+07,1.156e+07 L2.606e+07,970000 L3.74e+06,970000"/>
</g>

<g fill="#212121" fill-opacity="0.14902" stroke="#212121" stroke-opacity="0.14902" stroke-width="1" stroke-linecap="butt" stroke-linejoin="round" transform="matrix(0.5,0,0,0.5,0,0)"
font-family="MS Shell Dlg 2" font-size="8" font-weight="400" font-style="normal" 
>
<polyline fill="none" vector-effect="none" points="374,1156 374,97 " />
<polyline fill="none" vector-effect="none" points="692.857,1156 692.857,97 " />
<polyline fill="none" vector-effect="none" points="1011.71,1156 1011.71,97 " />
<polyline fill="none" vector-effect="none" points="1330.57,1156 1330.57,97 " />
<polyline fill="none" vector-effect="none" points="1649.43,1156 1649.43,97 " />
<polyline fill="none" vector-effect="none" points="1968.29,1156 1968.29,97 " />
<polyline fill="none" vector-effect="none" points="2287.14,1156 2287.14,97 " />
<polyline fill="none" vector-effect="none" points="2606,1156 2606,97 " />
</g>

<g fill="#212121" fill-opacity="0.14902" stroke="#212121" stroke-opacity="0.14902" stroke-dasharray="1,3" stroke-dashoffset="0" stroke-width="1" stroke-linecap="butt" stroke-linejoin="round" transform="matrix(0.5,0,0,0.5,0,0)"
font-family="MS Shell Dlg 2" font-size="8" font-weight="400" font-style="normal" 
>
<polyline fill="none" vector-effect="none" points="2606,1113.64 374,1113.64 " />
<polyline fill="none" vector-effect="none" points="2606,1071.28 374,1071.28 " />
<polyline fill="none" vector-effect="none" points="2606,1028.92 374,1028.92 " />
<polyline fill="none" vector-effect="none" points="2606,986.56 374,986.56 " />
<polyline fill="none" vector-effect="none" points="2606,901.84 374,901.84 " />
<polyline fill="none" vector-effect="none" points="2606,859.48 374,859.48 " />
<polyline fill="none" vector-effect="none" points="2606,817.12 374,817.12 " />
<polyline fill="none" vector-effect="none" points="2606,774.76 374,774.76 " />
<polyline fill="none" vector-effect="none" points="2606,690.04 374,690.04 " />
<polyline fill="none" vector-effect="none" points="2606,647.68 374,647.68 " />
<polyline fill="none" vector-effect="none" points="2606,605.32 374,605.32 " />
<polyline fill="none" vector-effect="none" points="2606,562.96 374,562.96 " />
<polyline fill="none" vector-effect="none" points="2606,478.24 374,478.24 " />
<polyline fill="none" vector-effect="none" points="2606,435.88 374,435.88 " />
<polyline fill="none" vector-effect="none" points="2606,393.52 374,393.52 " />
<polyline fill="none" vector-effect="none" points="2606,351.16 374,351.16 " />
<polyline fill="none" vector-effect="none" points="2606,266.44 374,266.44 " />
<polyline fill="none" vector-effect="none" points="2606,224.08 374,224.08 " />
<polyline fill="none" vector-effect="none" points="2606,181.72 374,181.72 " />
<polyline fill="none" vector-effect="none" points="2606,139.36 374,139.36 " />
</g>

<g fill="#212121" fill-opacity="0.14902" stroke="#212121" stroke-opacity="0.14902" stroke-width="1" stroke-linecap="butt" stroke-linejoin="round" transform="matrix(0.5,0,0,0.5,0,0)"
font-family="MS Shell Dlg 2" font-size="8" font-weight="400" font-style="normal" 
>
<polyline fill="none" vector-effect="none" points="2606,1156 374,1156 " />
<polyline fill="none" vector-effect="none" points="2606,944.2 374,944.2 " />
<polyline fill="none" vector-effect="none" points="2606,732.4 374,732.4 " />
<polyline fill="none" vector-effect="none" points="2606,520.6 374,520.6 " />
<polyline fill="none" vector-effect="none" points="2606,308.8 374,308.8 " />
<polyline fill="none" vector-effect="none" points="2606,97 374,97 " />
</g>

<g fill="#212121" fill-opacity="1" stroke="#212121" stroke-opacity="1" stroke-width="1" stroke-linecap="square" stroke-linejoin="round" transform="matrix(0.5,0,0,0.5,0,0)"
font-family="MS Shell Dlg 2" font-size="8" font-weight="400" font-style="normal" 
>
<polyline fill="none" vector-effect="none" points="374,1156 2606,1156 " />
<polyline fill="none" vector-effect="none" points="374,97 2606,97 " />
<polyline fill="none" vector-effect="none" points="374,1156 374,1133.68 " />
<polyline fill="none" vector-effect="none" points="692.857,1156 692.857,1133.68 " />
<polyline fill="none" vector-effect="none" points="1011.71,1156 1011.71,1133.68 " />
<polyline fill="none" vector-effect="none" points="1330.57,1156 1330.57,1133.68 " />
<polyline fill="none" vector-effect="none" points="1649.43,1156 1649.43,1133.68 " />
<polyline fill="none" vector-effect="none" points="1968.29,1156 1968.29,1133.68 " />
<polyline fill="none" vector-effect="none" points="2287.14,1156 2287.14,1133.68 " />
<polyline fill="none" vector-effect="none" points="2606,1156 2606,1133.68 " />
<polyline fill="none" vector-effect="none" points="374,97 374,119.32 " />
<polyline fill="none" vector-effect="none" points="692.857,97 692.857,119.32 " />
<polyline fill="none" vector-effect="none" points="1011.71,97 1011.71,119.32 " />
<polyline fill="none" vector-effect="none" points="1330.57,97 1330.57,119.32 " />
<polyline fill="none" vector-effect="none" points="1649.43,97 1649.43,119.32 " />
<polyline fill="none" vector-effect="none" points="1968.29,97 1968.29,119.32 " />
<polyline fill="none" vector-effect="none" points="2287.14,97 2287.14,119.32 " />
<polyline fill="none" vector-effect="none" points="2606,97 2606,119.32 " />
</g>

<g fill="#212121" fill-opacity="1" stroke="#212121" stroke-opacity="1" stroke-width="1" stroke-linecap="square" stroke-linejoin="bevel" transform="matrix(0.5,0,0,0.5,184.25,591.5)"
font-family="Helvetica" font-size="20" font-weight="400" font-style="normal" 
>
<text fill="#212121" fill-opacity="1" stroke="none" xml:space="preserve" x="0" y="0" font-family="Helvetica" font-size="20" font-weight="400" font-style="normal" 
 >0</text>
</g>

<g fill="#212121" fill-opacity="1" stroke="#212121" stroke-opacity="1" stroke-width="1" stroke-linecap="square" stroke-linejoin="bevel" transform="matrix(0.5,0,0,0.5,340.929,591.5)"
font-family="Helvetica" font-size="20" font-weight="400" font-style="normal" 
>
<text fill="#212121" fill-opacity="1" stroke="none" xml:space="preserve" x="0" y="0" font-family="Helvetica" font-size="20" font-weight="400" font-style="normal" 
 >20</text>
</g>

<g fill="#212121" fill-opacity="1" stroke="#212121" stroke-opacity="1" stroke-width="1" stroke-linecap="square" stroke-linejoin="bevel" transform="matrix(0.5,0,0,0.5,500.357,591.5)"
font-family="Helvetica" font-size="20" font-weight="400" font-style="normal" 
>
<text fill="#212121" fill-opacity="1" stroke="none" xml:space="preserve" x="0" y="0" font-family="Helvetica" font-size="20" font-weight="400" font-style="normal" 
 >40</text>
</g>

<g fill="#212121" fill-opacity="1" stroke="#212121" stroke-opacity="1" stroke-width="1" stroke-linecap="square" stroke-linejoin="bevel" transform="matrix(0.5,0,0,0.5,659.786,591.5)"
font-family="Helvetica" font-size="20" font-weight="400" font-style="normal" 
>
<text fill="#212121" fill-opacity="1" stroke="none" xml:space="preserve" x="0" y="0" font-family="Helvetica" font-size="20" font-weight="400" font-style="normal" 
 >60</text>
</g>

<g fill="#212121" fill-opacity="1" stroke="#212121" stroke-opacity="1" stroke-width="1" stroke-linecap="square" stroke-linejoin="bevel" transform="matrix(0.5,0,0,0.5,819.214,591.5)"
font-family="Helvetica" font-size="20" font-weight="400" font-style="normal" 
>
<text fill="#212121" fill-opacity="1" stroke="none" xml:space="preserve" x="0" y="0" font-family="Helvetica" font-size="20" font-weight="400" font-style="normal" 
 >80</text>
</g>

<g fill="#212121" fill-opacity="1" stroke="#212121" stroke-opacity="1" stroke-width="1" stroke-linecap="square" stroke-linejoin="bevel" transform="matrix(0.5,0,0,0.5,975.893,591.5)"
font-family="Helvetica" font-size="20" font-weight="400" font-style="normal" 
>
<text fill="#212121" fill-opacity="1" stroke="none" xml:space="preserve" x="0" y="0" font-family="Helvetica" font-size="20" font-weight="400" font-style="normal" 
 >100</text>
</g>

<g fill="#212121" fill-opacity="1" stroke="#212121" stroke-opacity="1" stroke-width="1" stroke-linecap="square" stroke-linejoin="bevel" transform="matrix(0.5,0,0,0.5,1135.32,591.5)"
font-family="Helvetica" font-size="20" font-weight="400" font-style="normal" 
>
<text fill="#212121" fill-opacity="1" stroke="none" xml:space="preserve" x="0" y="0" font-family="Helvetica" font-size="20" font-weight="400" font-style="normal" 
 >120</text>
</g>

<g fill="#212121" fill-opacity="1" stroke="#212121" stroke-opacity="1" stroke-width="1" stroke-linecap="square" stroke-linejoin="bevel" transform="matrix(0.5,0,0,0.5,1294.75,591.5)"
font-family="Helvetica" font-size="20" font-weight="400" font-style="normal" 
>
<text fill="#212121" fill-opacity="1" stroke="none" xml:space="preserve" x="0" y="0" font-family="Helvetica" font-size="20" font-weight="400" font-style="normal" 
 >140</text>
</g>

<g fill="#212121" fill-opacity="1" stroke="#212121" stroke-opacity="1" stroke-width="1" stroke-linecap="square" stroke-linejoin="bevel" transform="matrix(0.5,0,0,0.5,655.75,612.5)"
font-family="Arial" font-size="40" font-weight="400" font-style="normal" 
>
<text fill="#212121" fill-opacity="1" stroke="none" xml:space="preserve" x="0" y="0" font-family="Arial" font-size="40" font-weight="400" font-style="normal" 
 >Component Number</text>
</g>

<g fill="#212121" fill-opacity="1" stroke="#212121" stroke-opacity="1" stroke-width="1" stroke-linecap="square" stroke-linejoin="round" transform="matrix(0.5,0,0,0.5,0,0)"
font-family="Arial" font-size="40" font-weight="400" font-style="normal" 
>
<polyline fill="none" vector-effect="none" points="374,1156 374,97 " />
<polyline fill="none" vector-effect="none" points="2606,1156 2606,97 " />
<polyline fill="none" vector-effect="none" points="374,1156 396.32,1156 " />
<polyline fill="none" vector-effect="none" points="374,944.2 396.32,944.2 " />
<polyline fill="none" vector-effect="none" points="374,732.4 396.32,732.4 " />
<polyline fill="none" vector-effect="none" points="374,520.6 396.32,520.6 " />
<polyline fill="none" vector-effect="none" points="374,308.8 396.32,308.8 " />
<polyline fill="none" vector-effect="none" points="374,97 396.32,97 " />
<polyline fill="none" vector-effect="none" points="2606,1156 2583.68,1156 " />
<polyline fill="none" vector-effect="none" points="2606,944.2 2583.68,944.2 " />
<polyline fill="none" vector-effect="none" points="2606,732.4 2583.68,732.4 " />
<polyline fill="none" vector-effect="none" points="2606,520.6 2583.68,520.6 " />
<polyline fill="none" vector-effect="none" points="2606,308.8 2583.68,308.8 " />
<polyline fill="none" vector-effect="none" points="2606,97 2583.68,97 " />
<polyline fill="none" vector-effect="none" points="374,1156 385.16,1156 " />
<polyline fill="none" vector-effect="none" points="374,1113.64 385.16,1113.64 " />
<polyline fill="none" vector-effect="none" points="374,1071.28 385.16,1071.28 " />
<polyline fill="none" vector-effect="none" points="374,1028.92 385.16,1028.92 " />
<polyline fill="none" vector-effect="none" points="374,986.56 385.16,986.56 " />
<polyline fill="none" vector-effect="none" points="374,944.2 385.16,944.2 " />
<polyline fill="none" vector-effect="none" points="374,901.84 385.16,901.84 " />
<polyline fill="none" vector-effect="none" points="374,859.48 385.16,859.48 " />
<polyline fill="none" vector-effect="none" points="374,817.12 385.16,817.12 " />
<polyline fill="none" vector-effect="none" points="374,774.76 385.16,774.76 " />
<polyline fill="none" vector-effect="none" points="374,732.4 385.16,732.4 " />
<polyline fill="none" vector-effect="none" points="374,690.04 385.16,690.04 " />
<polyline fill="none" vector-effect="none" points="374,647.68 385.16,647.68 " />
<polyline fill="none" vector-effect="none" points="374,605.32 385.16,605.32 " />
<polyline fill="none" vector-effect="none" points="374,562.96 385.16,562.96 " />
<polyline fill="none" vector-effect="none" points="374,520.6 385.16,520.6 " />
<polyline fill="none" vector-effect="none" points="374,478.24 385.16,478.24 " />
<polyline fill="none" vector-effect="none" points="374,435.88 385.16,435.88 " />
<polyline fill="none" vector-effect="none" points="374,393.52 385.16,393.52 " />
<polyline fill="none" vector-effect="none" points="374,351.16 385.16,351.16 " />
<polyline fill="none" vector-effect="none" points="374,308.8 385.16,308.8 " />
<polyline fill="none" vector-effect="none" points="374,266.44 385.16,266.44 " />
<polyline fill="none" vector-effect="none" points="374,224.08 385.16,224.08 " />
<polyline fill="none" vector-effect="none" points="374,181.72 385.16,181.72 " />
<polyline fill="none" vector-effect="none" points="374,139.36 385.16,139.36 " />
<polyline fill="none" vector-effect="none" points="374,97 385.16,97 " />
<polyline fill="none" vector-effect="none" points="2606,1156 2594.84,1156 " />
<polyline fill="none" vector-effect="none" points="2606,1113.64 2594.84,1113.64 " />
<polyline fill="none" vector-effect="none" points="2606,1071.28 2594.84,1071.28 " />
<polyline fill="none" vector-effect="none" points="2606,1028.92 2594.84,1028.92 " />
<polyline fill="none" vector-effect="none" points="2606,986.56 2594.84,986.56 " />
<polyline fill="none" vector-effect="none" points="2606,944.2 2594.84,944.2 " />
<polyline fill="none" vector-effect="none" points="2606,901.84 2594.84,901.84 " />
<polyline fill="none" vector-effect="none" points="2606,859.48 2594.84,859.48 " />
<polyline fill="none" vector-effect="none" points="2606,817.12 2594.84,817.12 " />
<polyline fill="none" vector-effect="none" points="2606,774.76 2594.84,774.76 " />
<polyline fill="none" vector-effect="none" points="2606,732.4 2594.84,732.4 " />
<polyline fill="none" vector-effect="none" points="2606,690.04 2594.84,690.04 " />
<polyline fill="none" vector-effect="none" points="2606,647.68 2594.84,647.68 " />
<polyline fill="none" vector-effect="none" points="2606,605.32 2594.84,605.32 " />
<polyline fill="none" vector-effect="none" points="2606,562.96 2594.84,562.96 " />
<polyline fill="none" vector-effect="none" points="2606,520.6 2594.84,520.6 " />
<polyline fill="none" vector-effect="none" points="2606,478.24 2594.84,478.24 " />
<polyline fill="none" vector-effect="none" points="2606,435.88 2594.84,435.88 " />
<polyline fill="none" vector-effect="none" points="2606,393.52 2594.84,393.52 " />
<polyline fill="none" vector-effect="none" points="2606,351.16 2594.84,351.16 " />
<polyline fill="none" vector-effect="none" points="2606,308.8 2594.84,308.8 " />
<polyline fill="none" vector-effect="none" points="2606,266.44 2594.84,266.44 " />
<polyline fill="none" vector-effect="none" points="2606,224.08 2594.84,224.08 " />
<polyline fill="none" vector-effect="none" points="2606,181.72 2594.84,181.72 " />
<polyline fill="none" vector-effect="none" points="2606,139.36 2594.84,139.36 " />
<polyline fill="none" vector-effect="none" points="2606,97 2594.84,97 " />
</g>

<g fill="#212121" fill-opacity="1" stroke="#212121" stroke-opacity="1" stroke-width="1" stroke-linecap="square" stroke-linejoin="bevel" transform="matrix(0.5,0,0,0.5,160.5,583)"
font-family="Helvetica" font-size="20" font-weight="400" font-style="normal" 
>
<text fill="#212121" fill-opacity="1" stroke="none" xml:space="preserve" x="0" y="0" font-family="Helvetica" font-size="20" font-weight="400" font-style="normal" 
 >10</text>
</g>

<g fill="#212121" fill-opacity="1" stroke="#212121" stroke-opacity="1" stroke-width="1" stroke-linecap="square" stroke-linejoin="bevel" transform="matrix(0.5,0,0,0.5,171.5,578)"
font-family="Helvetica" font-size="16" font-weight="400" font-style="normal" 
>
<text fill="#212121" fill-opacity="1" stroke="none" xml:space="preserve" x="0" y="0" font-family="Helvetica" font-size="16" font-weight="400" font-style="normal" 
 >-10</text>
</g>

<g fill="#212121" fill-opacity="1" stroke="#212121" stroke-opacity="1" stroke-width="1" stroke-linecap="square" stroke-linejoin="bevel" transform="matrix(0.5,0,0,0.5,165,477)"
font-family="Helvetica" font-size="20" font-weight="400" font-style="normal" 
>
<text fill="#212121" fill-opacity="1" stroke="none" xml:space="preserve" x="0" y="0" font-family="Helvetica" font-size="20" font-weight="400" font-style="normal" 
 >10</text>
</g>

<g fill="#212121" fill-opacity="1" stroke="#212121" stroke-opacity="1" stroke-width="1" stroke-linecap="square" stroke-linejoin="bevel" transform="matrix(0.5,0,0,0.5,176,472)"
font-family="Helvetica" font-size="16" font-weight="400" font-style="normal" 
>
<text fill="#212121" fill-opacity="1" stroke="none" xml:space="preserve" x="0" y="0" font-family="Helvetica" font-size="16" font-weight="400" font-style="normal" 
 >-5</text>
</g>

<g fill="#212121" fill-opacity="1" stroke="#212121" stroke-opacity="1" stroke-width="1" stroke-linecap="square" stroke-linejoin="bevel" transform="matrix(0.5,0,0,0.5,167.5,371)"
font-family="Helvetica" font-size="20" font-weight="400" font-style="normal" 
>
<text fill="#212121" fill-opacity="1" stroke="none" xml:space="preserve" x="0" y="0" font-family="Helvetica" font-size="20" font-weight="400" font-style="normal" 
 >10</text>
</g>

<g fill="#212121" fill-opacity="1" stroke="#212121" stroke-opacity="1" stroke-width="1" stroke-linecap="square" stroke-linejoin="bevel" transform="matrix(0.5,0,0,0.5,178.5,366)"
font-family="Helvetica" font-size="16" font-weight="400" font-style="normal" 
>
<text fill="#212121" fill-opacity="1" stroke="none" xml:space="preserve" x="0" y="0" font-family="Helvetica" font-size="16" font-weight="400" font-style="normal" 
 >0</text>
</g>

<g fill="#212121" fill-opacity="1" stroke="#212121" stroke-opacity="1" stroke-width="1" stroke-linecap="square" stroke-linejoin="bevel" transform="matrix(0.5,0,0,0.5,167.5,265.5)"
font-family="Helvetica" font-size="20" font-weight="400" font-style="normal" 
>
<text fill="#212121" fill-opacity="1" stroke="none" xml:space="preserve" x="0" y="0" font-family="Helvetica" font-size="20" font-weight="400" font-style="normal" 
 >10</text>
</g>

<g fill="#212121" fill-opacity="1" stroke="#212121" stroke-opacity="1" stroke-width="1" stroke-linecap="square" stroke-linejoin="bevel" transform="matrix(0.5,0,0,0.5,178.5,260.5)"
font-family="Helvetica" font-size="16" font-weight="400" font-style="normal" 
>
<text fill="#212121" fill-opacity="1" stroke="none" xml:space="preserve" x="0" y="0" font-family="Helvetica" font-size="16" font-weight="400" font-style="normal" 
 >5</text>
</g>

<g fill="#212121" fill-opacity="1" stroke="#212121" stroke-opacity="1" stroke-width="1" stroke-linecap="square" stroke-linejoin="bevel" transform="matrix(0.5,0,0,0.5,163,159.5)"
font-family="Helvetica" font-size="20" font-weight="400" font-style="normal" 
>
<text fill="#212121" fill-opacity="1" stroke="none" xml:space="preserve" x="0" y="0" font-family="Helvetica" font-size="20" font-weight="400" font-style="normal" 
 >10</text>
</g>

<g fill="#212121" fill-opacity="1" stroke="#212121" stroke-opacity="1" stroke-width="1" stroke-linecap="square" stroke-linejoin="bevel" transform="matrix(0.5,0,0,0.5,174,154.5)"
font-family="Helvetica" font-size="16" font-weight="400" font-style="normal" 
>
<text fill="#212121" fill-opacity="1" stroke="none" xml:space="preserve" x="0" y="0" font-family="Helvetica" font-size="16" font-weight="400" font-style="normal" 
 >10</text>
</g>

<g fill="#212121" fill-opacity="1" stroke="#212121" stroke-opacity="1" stroke-width="1" stroke-linecap="square" stroke-linejoin="bevel" transform="matrix(0.5,0,0,0.5,163,53.5)"
font-family="Helvetica" font-size="20" font-weight="400" font-style="normal" 
>
<text fill="#212121" fill-opacity="1" stroke="none" xml:space="preserve" x="0" y="0" font-family="Helvetica" font-size="20" font-weight="400" font-style="normal" 
 >10</text>
</g>

<g fill="#212121" fill-opacity="1" stroke="#212121" stroke-opacity="1" stroke-width="1" stroke-linecap="square" stroke-linejoin="bevel" transform="matrix(0.5,0,0,0.5,174,48.5)"
font-family="Helvetica" font-size="16" font-weight="400" font-style="normal" 
>
<text fill="#212121" fill-opacity="1" stroke="none" xml:space="preserve" x="0" y="0" font-family="Helvetica" font-size="16" font-weight="400" font-style="normal" 
 >15</text>
</g>

<g fill="#212121" fill-opacity="1" stroke="#212121" stroke-opacity="1" stroke-width="1" stroke-linecap="square" stroke-linejoin="bevel" transform="matrix(0,-0.5,0.5,0,152.255,429.5)"
font-family="Arial" font-size="40" font-weight="400" font-style="normal" 
>
<text fill="#212121" fill-opacity="1" stroke="none" xml:space="preserve" x="0" y="0" font-family="Arial" font-size="40" font-weight="400" font-style="normal" 
 >Log Eigenvalue (Variance)</text>
</g>

<g fill="#212121" fill-opacity="1" stroke="#212121" stroke-opacity="1" stroke-width="1" stroke-linecap="square" stroke-linejoin="bevel" transform="matrix(0.5,0,0,0.5,544.25,39.875)"
font-family="Arial" font-size="50" font-weight="700" font-style="normal" 
>
<text fill="#212121" fill-opacity="1" stroke="none" xml:space="preserve" x="0" y="0" font-family="Arial" font-size="50" font-weight="700" font-style="normal" 
 >Eigenvalues of Covariance Matrix</text>
</g>

<g fill="none" stroke="#1656a7" stroke-opacity="1" stroke-width="2.5" stroke-linecap="butt" stroke-linejoin="round" transform="matrix(0.5,0,0,0.5,0,0)"
font-family="Arial" font-size="50" font-weight="700" font-style="normal" 
>
<polyline fill="none" vector-effect="none" points="374,97 1490,97 2606,97 2606,626.5 2606,1156 1490,1156 374,1156 374,626.5 374,97 " />
</g>

<g fill="none" stroke="#1171be" stroke-opacity="1" stroke-width="1" stroke-linecap="butt" stroke-linejoin="round" transform="matrix(0.5,0,0,0.5,0,0)"
font-family="Arial" font-size="50" font-weight="700" font-style="normal" 
>
<polyline fill="none" vector-effect="none" points="389.943,242.514 405.886,403.124 421.829,409.941 437.771,433.37 453.714,458.188 469.657,459.691 485.6,469.588 501.543,475.045 517.486,475.526 533.429,481.26 549.371,481.754 565.314,486.589 581.257,488.003 597.2,489.196 613.143,493.094 629.086,494.716 645.029,497.311 660.971,499.281 676.914,500.733 692.857,501.877 708.8,502.04 724.743,504.115 740.686,506.187 756.629,507.296 772.571,510.282 788.514,511.818 804.457,512.416 820.4,515.222 836.343,516.767 852.286,518.967 868.229,520.098 884.171,522.237 900.114,522.707 916.057,523.47 932,524.892 947.943,525.773 963.886,527.011 979.829,528.124 995.771,528.708 1011.71,529.421 1027.66,530.643 1043.6,532.575 1059.54,533.355 1075.49,534.444 1091.43,535.782 1107.37,536.825 1123.31,537.905 1139.26,538.999 1155.2,539.951 1171.14,540.372 1187.09,540.589 1203.03,541.585 1218.97,543.611 1234.91,544.406 1250.86,545.204 1266.8,546.503 1282.74,548.068 1298.69,549.517 1314.63,550.299 1330.57,551.823 1346.51,553.082 1362.46,553.454 1378.4,554.429 1394.34,555.197 1410.29,556.125 1426.23,557.319 1442.17,558.203 1458.11,559.297 1474.06,560.129 1490,561.044 1505.94,561.586 1521.89,563.295 1537.83,564.542 1553.77,566.442 1569.71,567.544 1585.66,568.029 1601.6,569.833 1617.54,571.889 1633.49,573.79 1649.43,575.134 1665.37,575.466 1681.31,576.851 1697.26,579.856 1713.2,580.957 1729.14,583.997 1745.09,584.373 1761.03,586.788 1776.97,588.267 1792.91,590.729 1808.86,592.827 1824.8,592.993 1840.74,593.361 1856.69,595.213 1872.63,599.724 1888.57,601.063 1904.51,602.679 1920.46,604.582 1936.4,607.095 1952.34,611.608 1968.29,613.481 1984.23,616.603 2000.17,620.796 2016.11,627.441 2032.06,633.241 2048,664.042 2063.94,942.221 2079.89,960.263 2095.83,961.781 2111.77,973.542 2127.71,974.751 2143.66,985.582 2159.6,990.932 2175.54,997.921 2191.49,1009.25 2207.43,1011.84 2223.37,1026.35 2239.31,1034.4 2255.26,1040.69 2271.2,1061.38 2287.14,1068.67 2303.09,1100.3 2319.03,1116.87 2334.97,1119.67 2350.91,1122.22 2366.86,1133.71 2382.8,1145.69 2398.74,1149.64 " />
</g>

<g fill="none" stroke="#1171be" stroke-opacity="1" stroke-width="1" stroke-linecap="butt" stroke-linejoin="miter" stroke-miterlimit="2" transform="matrix(0.5,0,0,0.5,0,0)"
font-family="Arial" font-size="50" font-weight="700" font-style="normal" 
>
<path vector-effect="none" fill-rule="evenodd" d="M395.943,242.514 C395.943,239.2 393.257,236.514 389.943,236.514 C386.629,236.514 383.943,239.2 383.943,242.514 C383.943,245.827 386.629,248.514 389.943,248.514 C393.257,248.514 395.943,245.827 395.943,242.514 "/>
<path vector-effect="none" fill-rule="evenodd" d="M411.886,403.124 C411.886,399.811 409.199,397.124 405.886,397.124 C402.572,397.124 399.886,399.811 399.886,403.124 C399.886,406.438 402.572,409.124 405.886,409.124 C409.199,409.124 411.886,406.438 411.886,403.124 "/>
<path vector-effect="none" fill-rule="evenodd" d="M427.829,409.941 C427.829,406.627 425.142,403.941 421.829,403.941 C418.515,403.941 415.829,406.627 415.829,409.941 C415.829,413.255 418.515,415.941 421.829,415.941 C425.142,415.941 427.829,413.255 427.829,409.941 "/>
<path vector-effect="none" fill-rule="evenodd" d="M443.771,433.37 C443.771,430.056 441.085,427.37 437.771,427.37 C434.458,427.37 431.771,430.056 431.771,433.37 C431.771,436.683 434.458,439.37 437.771,439.37 C441.085,439.37 443.771,436.683 443.771,433.37 "/>
<path vector-effect="none" fill-rule="evenodd" d="M459.714,458.188 C459.714,454.874 457.028,452.188 453.714,452.188 C450.401,452.188 447.714,454.874 447.714,458.188 C447.714,461.501 450.401,464.188 453.714,464.188 C457.028,464.188 459.714,461.501 459.714,458.188 "/>
<path vector-effect="none" fill-rule="evenodd" d="M475.657,459.691 C475.657,456.377 472.971,453.691 469.657,453.691 C466.343,453.691 463.657,456.377 463.657,459.691 C463.657,463.005 466.343,465.691 469.657,465.691 C472.971,465.691 475.657,463.005 475.657,459.691 "/>
<path vector-effect="none" fill-rule="evenodd" d="M491.6,469.588 C491.6,466.274 488.914,463.588 485.6,463.588 C482.286,463.588 479.6,466.274 479.6,469.588 C479.6,472.902 482.286,475.588 485.6,475.588 C488.914,475.588 491.6,472.902 491.6,469.588 "/>
<path vector-effect="none" fill-rule="evenodd" d="M507.543,475.045 C507.543,471.732 504.857,469.045 501.543,469.045 C498.229,469.045 495.543,471.732 495.543,475.045 C495.543,478.359 498.229,481.045 501.543,481.045 C504.857,481.045 507.543,478.359 507.543,475.045 "/>
<path vector-effect="none" fill-rule="evenodd" d="M523.486,475.526 C523.486,472.213 520.799,469.526 517.486,469.526 C514.172,469.526 511.486,472.213 511.486,475.526 C511.486,478.84 514.172,481.526 517.486,481.526 C520.799,481.526 523.486,478.84 523.486,475.526 "/>
<path vector-effect="none" fill-rule="evenodd" d="M539.429,481.26 C539.429,477.946 536.742,475.26 533.429,475.26 C530.115,475.26 527.429,477.946 527.429,481.26 C527.429,484.573 530.115,487.26 533.429,487.26 C536.742,487.26 539.429,484.573 539.429,481.26 "/>
<path vector-effect="none" fill-rule="evenodd" d="M555.371,481.754 C555.371,478.441 552.685,475.754 549.371,475.754 C546.058,475.754 543.371,478.441 543.371,481.754 C543.371,485.068 546.058,487.754 549.371,487.754 C552.685,487.754 555.371,485.068 555.371,481.754 "/>
<path vector-effect="none" fill-rule="evenodd" d="M571.314,486.589 C571.314,483.275 568.628,480.589 565.314,480.589 C562.001,480.589 559.314,483.275 559.314,486.589 C559.314,489.903 562.001,492.589 565.314,492.589 C568.628,492.589 571.314,489.903 571.314,486.589 "/>
<path vector-effect="none" fill-rule="evenodd" d="M587.257,488.003 C587.257,484.69 584.571,482.003 581.257,482.003 C577.943,482.003 575.257,484.69 575.257,488.003 C575.257,491.317 577.943,494.003 581.257,494.003 C584.571,494.003 587.257,491.317 587.257,488.003 "/>
<path vector-effect="none" fill-rule="evenodd" d="M603.2,489.196 C603.2,485.883 600.514,483.196 597.2,483.196 C593.886,483.196 591.2,485.883 591.2,489.196 C591.2,492.51 593.886,495.196 597.2,495.196 C600.514,495.196 603.2,492.51 603.2,489.196 "/>
<path vector-effect="none" fill-rule="evenodd" d="M619.143,493.094 C619.143,489.781 616.457,487.094 613.143,487.094 C609.829,487.094 607.143,489.781 607.143,493.094 C607.143,496.408 609.829,499.094 613.143,499.094 C616.457,499.094 619.143,496.408 619.143,493.094 "/>
<path vector-effect="none" fill-rule="evenodd" d="M635.086,494.716 C635.086,491.402 632.399,488.716 629.086,488.716 C625.772,488.716 623.086,491.402 623.086,494.716 C623.086,498.03 625.772,500.716 629.086,500.716 C632.399,500.716 635.086,498.03 635.086,494.716 "/>
<path vector-effect="none" fill-rule="evenodd" d="M651.029,497.311 C651.029,493.998 648.342,491.311 645.029,491.311 C641.715,491.311 639.029,493.998 639.029,497.311 C639.029,500.625 641.715,503.311 645.029,503.311 C648.342,503.311 651.029,500.625 651.029,497.311 "/>
<path vector-effect="none" fill-rule="evenodd" d="M666.971,499.281 C666.971,495.968 664.285,493.281 660.971,493.281 C657.658,493.281 654.971,495.968 654.971,499.281 C654.971,502.595 657.658,505.281 660.971,505.281 C664.285,505.281 666.971,502.595 666.971,499.281 "/>
<path vector-effect="none" fill-rule="evenodd" d="M682.914,500.733 C682.914,497.419 680.228,494.733 676.914,494.733 C673.601,494.733 670.914,497.419 670.914,500.733 C670.914,504.046 673.601,506.733 676.914,506.733 C680.228,506.733 682.914,504.046 682.914,500.733 "/>
<path vector-effect="none" fill-rule="evenodd" d="M698.857,501.877 C698.857,498.563 696.171,495.877 692.857,495.877 C689.543,495.877 686.857,498.563 686.857,501.877 C686.857,505.191 689.543,507.877 692.857,507.877 C696.171,507.877 698.857,505.191 698.857,501.877 "/>
<path vector-effect="none" fill-rule="evenodd" d="M714.8,502.04 C714.8,498.726 712.114,496.04 708.8,496.04 C705.486,496.04 702.8,498.726 702.8,502.04 C702.8,505.353 705.486,508.04 708.8,508.04 C712.114,508.04 714.8,505.353 714.8,502.04 "/>
<path vector-effect="none" fill-rule="evenodd" d="M730.743,504.115 C730.743,500.802 728.057,498.115 724.743,498.115 C721.429,498.115 718.743,500.802 718.743,504.115 C718.743,507.429 721.429,510.115 724.743,510.115 C728.057,510.115 730.743,507.429 730.743,504.115 "/>
<path vector-effect="none" fill-rule="evenodd" d="M746.686,506.187 C746.686,502.873 743.999,500.187 740.686,500.187 C737.372,500.187 734.686,502.873 734.686,506.187 C734.686,509.501 737.372,512.187 740.686,512.187 C743.999,512.187 746.686,509.501 746.686,506.187 "/>
<path vector-effect="none" fill-rule="evenodd" d="M762.629,507.296 C762.629,503.982 759.942,501.296 756.629,501.296 C753.315,501.296 750.629,503.982 750.629,507.296 C750.629,510.61 753.315,513.296 756.629,513.296 C759.942,513.296 762.629,510.61 762.629,507.296 "/>
<path vector-effect="none" fill-rule="evenodd" d="M778.571,510.282 C778.571,506.969 775.885,504.282 772.571,504.282 C769.258,504.282 766.571,506.969 766.571,510.282 C766.571,513.596 769.258,516.282 772.571,516.282 C775.885,516.282 778.571,513.596 778.571,510.282 "/>
<path vector-effect="none" fill-rule="evenodd" d="M794.514,511.818 C794.514,508.505 791.828,505.818 788.514,505.818 C785.201,505.818 782.514,508.505 782.514,511.818 C782.514,515.132 785.201,517.818 788.514,517.818 C791.828,517.818 794.514,515.132 794.514,511.818 "/>
<path vector-effect="none" fill-rule="evenodd" d="M810.457,512.416 C810.457,509.102 807.771,506.416 804.457,506.416 C801.143,506.416 798.457,509.102 798.457,512.416 C798.457,515.73 801.143,518.416 804.457,518.416 C807.771,518.416 810.457,515.73 810.457,512.416 "/>
<path vector-effect="none" fill-rule="evenodd" d="M826.4,515.222 C826.4,511.909 823.714,509.222 820.4,509.222 C817.086,509.222 814.4,511.909 814.4,515.222 C814.4,518.536 817.086,521.222 820.4,521.222 C823.714,521.222 826.4,518.536 826.4,515.222 "/>
<path vector-effect="none" fill-rule="evenodd" d="M842.343,516.767 C842.343,513.454 839.657,510.767 836.343,510.767 C833.029,510.767 830.343,513.454 830.343,516.767 C830.343,520.081 833.029,522.767 836.343,522.767 C839.657,522.767 842.343,520.081 842.343,516.767 "/>
<path vector-effect="none" fill-rule="evenodd" d="M858.286,518.967 C858.286,515.654 855.599,512.967 852.286,512.967 C848.972,512.967 846.286,515.654 846.286,518.967 C846.286,522.281 848.972,524.967 852.286,524.967 C855.599,524.967 858.286,522.281 858.286,518.967 "/>
<path vector-effect="none" fill-rule="evenodd" d="M874.229,520.098 C874.229,516.784 871.542,514.098 868.229,514.098 C864.915,514.098 862.229,516.784 862.229,520.098 C862.229,523.411 864.915,526.098 868.229,526.098 C871.542,526.098 874.229,523.411 874.229,520.098 "/>
<path vector-effect="none" fill-rule="evenodd" d="M890.171,522.237 C890.171,518.923 887.485,516.237 884.171,516.237 C880.858,516.237 878.171,518.923 878.171,522.237 C878.171,525.55 880.858,528.237 884.171,528.237 C887.485,528.237 890.171,525.55 890.171,522.237 "/>
<path vector-effect="none" fill-rule="evenodd" d="M906.114,522.707 C906.114,519.394 903.428,516.707 900.114,516.707 C896.801,516.707 894.114,519.394 894.114,522.707 C894.114,526.021 896.801,528.707 900.114,528.707 C903.428,528.707 906.114,526.021 906.114,522.707 "/>
<path vector-effect="none" fill-rule="evenodd" d="M922.057,523.47 C922.057,520.157 919.371,517.47 916.057,517.47 C912.743,517.47 910.057,520.157 910.057,523.47 C910.057,526.784 912.743,529.47 916.057,529.47 C919.371,529.47 922.057,526.784 922.057,523.47 "/>
<path vector-effect="none" fill-rule="evenodd" d="M938,524.892 C938,521.578 935.314,518.892 932,518.892 C928.686,518.892 926,521.578 926,524.892 C926,528.205 928.686,530.892 932,530.892 C935.314,530.892 938,528.205 938,524.892 "/>
<path vector-effect="none" fill-rule="evenodd" d="M953.943,525.773 C953.943,522.459 951.257,519.773 947.943,519.773 C944.629,519.773 941.943,522.459 941.943,525.773 C941.943,529.086 944.629,531.773 947.943,531.773 C951.257,531.773 953.943,529.086 953.943,525.773 "/>
<path vector-effect="none" fill-rule="evenodd" d="M969.886,527.011 C969.886,523.698 967.199,521.011 963.886,521.011 C960.572,521.011 957.886,523.698 957.886,527.011 C957.886,530.325 960.572,533.011 963.886,533.011 C967.199,533.011 969.886,530.325 969.886,527.011 "/>
<path vector-effect="none" fill-rule="evenodd" d="M985.829,528.124 C985.829,524.81 983.142,522.124 979.829,522.124 C976.515,522.124 973.829,524.81 973.829,528.124 C973.829,531.438 976.515,534.124 979.829,534.124 C983.142,534.124 985.829,531.438 985.829,528.124 "/>
<path vector-effect="none" fill-rule="evenodd" d="M1001.77,528.708 C1001.77,525.394 999.085,522.708 995.771,522.708 C992.458,522.708 989.771,525.394 989.771,528.708 C989.771,532.022 992.458,534.708 995.771,534.708 C999.085,534.708 1001.77,532.022 1001.77,528.708 "/>
<path vector-effect="none" fill-rule="evenodd" d="M1017.71,529.421 C1017.71,526.107 1015.03,523.421 1011.71,523.421 C1008.4,523.421 1005.71,526.107 1005.71,529.421 C1005.71,532.735 1008.4,535.421 1011.71,535.421 C1015.03,535.421 1017.71,532.735 1017.71,529.421 "/>
<path vector-effect="none" fill-rule="evenodd" d="M1033.66,530.643 C1033.66,527.329 1030.97,524.643 1027.66,524.643 C1024.34,524.643 1021.66,527.329 1021.66,530.643 C1021.66,533.956 1024.34,536.643 1027.66,536.643 C1030.97,536.643 1033.66,533.956 1033.66,530.643 "/>
<path vector-effect="none" fill-rule="evenodd" d="M1049.6,532.575 C1049.6,529.261 1046.91,526.575 1043.6,526.575 C1040.29,526.575 1037.6,529.261 1037.6,532.575 C1037.6,535.889 1040.29,538.575 1043.6,538.575 C1046.91,538.575 1049.6,535.889 1049.6,532.575 "/>
<path vector-effect="none" fill-rule="evenodd" d="M1065.54,533.355 C1065.54,530.041 1062.86,527.355 1059.54,527.355 C1056.23,527.355 1053.54,530.041 1053.54,533.355 C1053.54,536.669 1056.23,539.355 1059.54,539.355 C1062.86,539.355 1065.54,536.669 1065.54,533.355 "/>
<path vector-effect="none" fill-rule="evenodd" d="M1081.49,534.444 C1081.49,531.13 1078.8,528.444 1075.49,528.444 C1072.17,528.444 1069.49,531.13 1069.49,534.444 C1069.49,537.758 1072.17,540.444 1075.49,540.444 C1078.8,540.444 1081.49,537.758 1081.49,534.444 "/>
<path vector-effect="none" fill-rule="evenodd" d="M1097.43,535.782 C1097.43,532.468 1094.74,529.782 1091.43,529.782 C1088.11,529.782 1085.43,532.468 1085.43,535.782 C1085.43,539.096 1088.11,541.782 1091.43,541.782 C1094.74,541.782 1097.43,539.096 1097.43,535.782 "/>
<path vector-effect="none" fill-rule="evenodd" d="M1113.37,536.825 C1113.37,533.511 1110.69,530.825 1107.37,530.825 C1104.06,530.825 1101.37,533.511 1101.37,536.825 C1101.37,540.139 1104.06,542.825 1107.37,542.825 C1110.69,542.825 1113.37,540.139 1113.37,536.825 "/>
<path vector-effect="none" fill-rule="evenodd" d="M1129.31,537.905 C1129.31,534.591 1126.63,531.905 1123.31,531.905 C1120,531.905 1117.31,534.591 1117.31,537.905 C1117.31,541.218 1120,543.905 1123.31,543.905 C1126.63,543.905 1129.31,541.218 1129.31,537.905 "/>
<path vector-effect="none" fill-rule="evenodd" d="M1145.26,538.999 C1145.26,535.685 1142.57,532.999 1139.26,532.999 C1135.94,532.999 1133.26,535.685 1133.26,538.999 C1133.26,542.312 1135.94,544.999 1139.26,544.999 C1142.57,544.999 1145.26,542.312 1145.26,538.999 "/>
<path vector-effect="none" fill-rule="evenodd" d="M1161.2,539.951 C1161.2,536.637 1158.51,533.951 1155.2,533.951 C1151.89,533.951 1149.2,536.637 1149.2,539.951 C1149.2,543.265 1151.89,545.951 1155.2,545.951 C1158.51,545.951 1161.2,543.265 1161.2,539.951 "/>
<path vector-effect="none" fill-rule="evenodd" d="M1177.14,540.372 C1177.14,537.059 1174.46,534.372 1171.14,534.372 C1167.83,534.372 1165.14,537.059 1165.14,540.372 C1165.14,543.686 1167.83,546.372 1171.14,546.372 C1174.46,546.372 1177.14,543.686 1177.14,540.372 "/>
<path vector-effect="none" fill-rule="evenodd" d="M1193.09,540.589 C1193.09,537.275 1190.4,534.589 1187.09,534.589 C1183.77,534.589 1181.09,537.275 1181.09,540.589 C1181.09,543.903 1183.77,546.589 1187.09,546.589 C1190.4,546.589 1193.09,543.903 1193.09,540.589 "/>
<path vector-effect="none" fill-rule="evenodd" d="M1209.03,541.585 C1209.03,538.271 1206.34,535.585 1203.03,535.585 C1199.71,535.585 1197.03,538.271 1197.03,541.585 C1197.03,544.898 1199.71,547.585 1203.03,547.585 C1206.34,547.585 1209.03,544.898 1209.03,541.585 "/>
<path vector-effect="none" fill-rule="evenodd" d="M1224.97,543.611 C1224.97,540.298 1222.29,537.611 1218.97,537.611 C1215.66,537.611 1212.97,540.298 1212.97,543.611 C1212.97,546.925 1215.66,549.611 1218.97,549.611 C1222.29,549.611 1224.97,546.925 1224.97,543.611 "/>
<path vector-effect="none" fill-rule="evenodd" d="M1240.91,544.406 C1240.91,541.093 1238.23,538.406 1234.91,538.406 C1231.6,538.406 1228.91,541.093 1228.91,544.406 C1228.91,547.72 1231.6,550.406 1234.91,550.406 C1238.23,550.406 1240.91,547.72 1240.91,544.406 "/>
<path vector-effect="none" fill-rule="evenodd" d="M1256.86,545.204 C1256.86,541.89 1254.17,539.204 1250.86,539.204 C1247.54,539.204 1244.86,541.89 1244.86,545.204 C1244.86,548.518 1247.54,551.204 1250.86,551.204 C1254.17,551.204 1256.86,548.518 1256.86,545.204 "/>
<path vector-effect="none" fill-rule="evenodd" d="M1272.8,546.503 C1272.8,543.19 1270.11,540.503 1266.8,540.503 C1263.49,540.503 1260.8,543.19 1260.8,546.503 C1260.8,549.817 1263.49,552.503 1266.8,552.503 C1270.11,552.503 1272.8,549.817 1272.8,546.503 "/>
<path vector-effect="none" fill-rule="evenodd" d="M1288.74,548.068 C1288.74,544.754 1286.06,542.068 1282.74,542.068 C1279.43,542.068 1276.74,544.754 1276.74,548.068 C1276.74,551.381 1279.43,554.068 1282.74,554.068 C1286.06,554.068 1288.74,551.381 1288.74,548.068 "/>
<path vector-effect="none" fill-rule="evenodd" d="M1304.69,549.517 C1304.69,546.203 1302,543.517 1298.69,543.517 C1295.37,543.517 1292.69,546.203 1292.69,549.517 C1292.69,552.831 1295.37,555.517 1298.69,555.517 C1302,555.517 1304.69,552.831 1304.69,549.517 "/>
<path vector-effect="none" fill-rule="evenodd" d="M1320.63,550.299 C1320.63,546.986 1317.94,544.299 1314.63,544.299 C1311.31,544.299 1308.63,546.986 1308.63,550.299 C1308.63,553.613 1311.31,556.299 1314.63,556.299 C1317.94,556.299 1320.63,553.613 1320.63,550.299 "/>
<path vector-effect="none" fill-rule="evenodd" d="M1336.57,551.823 C1336.57,548.509 1333.89,545.823 1330.57,545.823 C1327.26,545.823 1324.57,548.509 1324.57,551.823 C1324.57,555.136 1327.26,557.823 1330.57,557.823 C1333.89,557.823 1336.57,555.136 1336.57,551.823 "/>
<path vector-effect="none" fill-rule="evenodd" d="M1352.51,553.082 C1352.51,549.768 1349.83,547.082 1346.51,547.082 C1343.2,547.082 1340.51,549.768 1340.51,553.082 C1340.51,556.395 1343.2,559.082 1346.51,559.082 C1349.83,559.082 1352.51,556.395 1352.51,553.082 "/>
<path vector-effect="none" fill-rule="evenodd" d="M1368.46,553.454 C1368.46,550.14 1365.77,547.454 1362.46,547.454 C1359.14,547.454 1356.46,550.14 1356.46,553.454 C1356.46,556.767 1359.14,559.454 1362.46,559.454 C1365.77,559.454 1368.46,556.767 1368.46,553.454 "/>
<path vector-effect="none" fill-rule="evenodd" d="M1384.4,554.429 C1384.4,551.115 1381.71,548.429 1378.4,548.429 C1375.09,548.429 1372.4,551.115 1372.4,554.429 C1372.4,557.742 1375.09,560.429 1378.4,560.429 C1381.71,560.429 1384.4,557.742 1384.4,554.429 "/>
<path vector-effect="none" fill-rule="evenodd" d="M1400.34,555.197 C1400.34,551.883 1397.66,549.197 1394.34,549.197 C1391.03,549.197 1388.34,551.883 1388.34,555.197 C1388.34,558.51 1391.03,561.197 1394.34,561.197 C1397.66,561.197 1400.34,558.51 1400.34,555.197 "/>
<path vector-effect="none" fill-rule="evenodd" d="M1416.29,556.125 C1416.29,552.811 1413.6,550.125 1410.29,550.125 C1406.97,550.125 1404.29,552.811 1404.29,556.125 C1404.29,559.438 1406.97,562.125 1410.29,562.125 C1413.6,562.125 1416.29,559.438 1416.29,556.125 "/>
<path vector-effect="none" fill-rule="evenodd" d="M1432.23,557.319 C1432.23,554.005 1429.54,551.319 1426.23,551.319 C1422.91,551.319 1420.23,554.005 1420.23,557.319 C1420.23,560.633 1422.91,563.319 1426.23,563.319 C1429.54,563.319 1432.23,560.633 1432.23,557.319 "/>
<path vector-effect="none" fill-rule="evenodd" d="M1448.17,558.203 C1448.17,554.889 1445.49,552.203 1442.17,552.203 C1438.86,552.203 1436.17,554.889 1436.17,558.203 C1436.17,561.516 1438.86,564.203 1442.17,564.203 C1445.49,564.203 1448.17,561.516 1448.17,558.203 "/>
<path vector-effect="none" fill-rule="evenodd" d="M1464.11,559.297 C1464.11,555.983 1461.43,553.297 1458.11,553.297 C1454.8,553.297 1452.11,555.983 1452.11,559.297 C1452.11,562.61 1454.8,565.297 1458.11,565.297 C1461.43,565.297 1464.11,562.61 1464.11,559.297 "/>
<path vector-effect="none" fill-rule="evenodd" d="M1480.06,560.129 C1480.06,556.816 1477.37,554.129 1474.06,554.129 C1470.74,554.129 1468.06,556.816 1468.06,560.129 C1468.06,563.443 1470.74,566.129 1474.06,566.129 C1477.37,566.129 1480.06,563.443 1480.06,560.129 "/>
<path vector-effect="none" fill-rule="evenodd" d="M1496,561.044 C1496,557.73 1493.31,555.044 1490,555.044 C1486.69,555.044 1484,557.73 1484,561.044 C1484,564.358 1486.69,567.044 1490,567.044 C1493.31,567.044 1496,564.358 1496,561.044 "/>
<path vector-effect="none" fill-rule="evenodd" d="M1511.94,561.586 C1511.94,558.272 1509.26,555.586 1505.94,555.586 C1502.63,555.586 1499.94,558.272 1499.94,561.586 C1499.94,564.9 1502.63,567.586 1505.94,567.586 C1509.26,567.586 1511.94,564.9 1511.94,561.586 "/>
<path vector-effect="none" fill-rule="evenodd" d="M1527.89,563.295 C1527.89,559.981 1525.2,557.295 1521.89,557.295 C1518.57,557.295 1515.89,559.981 1515.89,563.295 C1515.89,566.609 1518.57,569.295 1521.89,569.295 C1525.2,569.295 1527.89,566.609 1527.89,563.295 "/>
<path vector-effect="none" fill-rule="evenodd" d="M1543.83,564.542 C1543.83,561.229 1541.14,558.542 1537.83,558.542 C1534.51,558.542 1531.83,561.229 1531.83,564.542 C1531.83,567.856 1534.51,570.542 1537.83,570.542 C1541.14,570.542 1543.83,567.856 1543.83,564.542 "/>
<path vector-effect="none" fill-rule="evenodd" d="M1559.77,566.442 C1559.77,563.129 1557.09,560.442 1553.77,560.442 C1550.46,560.442 1547.77,563.129 1547.77,566.442 C1547.77,569.756 1550.46,572.442 1553.77,572.442 C1557.09,572.442 1559.77,569.756 1559.77,566.442 "/>
<path vector-effect="none" fill-rule="evenodd" d="M1575.71,567.544 C1575.71,564.23 1573.03,561.544 1569.71,561.544 C1566.4,561.544 1563.71,564.23 1563.71,567.544 C1563.71,570.858 1566.4,573.544 1569.71,573.544 C1573.03,573.544 1575.71,570.858 1575.71,567.544 "/>
<path vector-effect="none" fill-rule="evenodd" d="M1591.66,568.029 C1591.66,564.715 1588.97,562.029 1585.66,562.029 C1582.34,562.029 1579.66,564.715 1579.66,568.029 C1579.66,571.342 1582.34,574.029 1585.66,574.029 C1588.97,574.029 1591.66,571.342 1591.66,568.029 "/>
<path vector-effect="none" fill-rule="evenodd" d="M1607.6,569.833 C1607.6,566.519 1604.91,563.833 1601.6,563.833 C1598.29,563.833 1595.6,566.519 1595.6,569.833 C1595.6,573.146 1598.29,575.833 1601.6,575.833 C1604.91,575.833 1607.6,573.146 1607.6,569.833 "/>
<path vector-effect="none" fill-rule="evenodd" d="M1623.54,571.889 C1623.54,568.575 1620.86,565.889 1617.54,565.889 C1614.23,565.889 1611.54,568.575 1611.54,571.889 C1611.54,575.202 1614.23,577.889 1617.54,577.889 C1620.86,577.889 1623.54,575.202 1623.54,571.889 "/>
<path vector-effect="none" fill-rule="evenodd" d="M1639.49,573.79 C1639.49,570.476 1636.8,567.79 1633.49,567.79 C1630.17,567.79 1627.49,570.476 1627.49,573.79 C1627.49,577.103 1630.17,579.79 1633.49,579.79 C1636.8,579.79 1639.49,577.103 1639.49,573.79 "/>
<path vector-effect="none" fill-rule="evenodd" d="M1655.43,575.134 C1655.43,571.821 1652.74,569.134 1649.43,569.134 C1646.11,569.134 1643.43,571.821 1643.43,575.134 C1643.43,578.448 1646.11,581.134 1649.43,581.134 C1652.74,581.134 1655.43,578.448 1655.43,575.134 "/>
<path vector-effect="none" fill-rule="evenodd" d="M1671.37,575.466 C1671.37,572.152 1668.69,569.466 1665.37,569.466 C1662.06,569.466 1659.37,572.152 1659.37,575.466 C1659.37,578.779 1662.06,581.466 1665.37,581.466 C1668.69,581.466 1671.37,578.779 1671.37,575.466 "/>
<path vector-effect="none" fill-rule="evenodd" d="M1687.31,576.851 C1687.31,573.537 1684.63,570.851 1681.31,570.851 C1678,570.851 1675.31,573.537 1675.31,576.851 C1675.31,580.165 1678,582.851 1681.31,582.851 C1684.63,582.851 1687.31,580.165 1687.31,576.851 "/>
<path vector-effect="none" fill-rule="evenodd" d="M1703.26,579.856 C1703.26,576.542 1700.57,573.856 1697.26,573.856 C1693.94,573.856 1691.26,576.542 1691.26,579.856 C1691.26,583.17 1693.94,585.856 1697.26,585.856 C1700.57,585.856 1703.26,583.17 1703.26,579.856 "/>
<path vector-effect="none" fill-rule="evenodd" d="M1719.2,580.957 C1719.2,577.643 1716.51,574.957 1713.2,574.957 C1709.89,574.957 1707.2,577.643 1707.2,580.957 C1707.2,584.271 1709.89,586.957 1713.2,586.957 C1716.51,586.957 1719.2,584.271 1719.2,580.957 "/>
<path vector-effect="none" fill-rule="evenodd" d="M1735.14,583.997 C1735.14,580.683 1732.46,577.997 1729.14,577.997 C1725.83,577.997 1723.14,580.683 1723.14,583.997 C1723.14,587.311 1725.83,589.997 1729.14,589.997 C1732.46,589.997 1735.14,587.311 1735.14,583.997 "/>
<path vector-effect="none" fill-rule="evenodd" d="M1751.09,584.373 C1751.09,581.06 1748.4,578.373 1745.09,578.373 C1741.77,578.373 1739.09,581.06 1739.09,584.373 C1739.09,587.687 1741.77,590.373 1745.09,590.373 C1748.4,590.373 1751.09,587.687 1751.09,584.373 "/>
<path vector-effect="none" fill-rule="evenodd" d="M1767.03,586.788 C1767.03,583.474 1764.34,580.788 1761.03,580.788 C1757.71,580.788 1755.03,583.474 1755.03,586.788 C1755.03,590.101 1757.71,592.788 1761.03,592.788 C1764.34,592.788 1767.03,590.101 1767.03,586.788 "/>
<path vector-effect="none" fill-rule="evenodd" d="M1782.97,588.267 C1782.97,584.954 1780.29,582.267 1776.97,582.267 C1773.66,582.267 1770.97,584.954 1770.97,588.267 C1770.97,591.581 1773.66,594.267 1776.97,594.267 C1780.29,594.267 1782.97,591.581 1782.97,588.267 "/>
<path vector-effect="none" fill-rule="evenodd" d="M1798.91,590.729 C1798.91,587.416 1796.23,584.729 1792.91,584.729 C1789.6,584.729 1786.91,587.416 1786.91,590.729 C1786.91,594.043 1789.6,596.729 1792.91,596.729 C1796.23,596.729 1798.91,594.043 1798.91,590.729 "/>
<path vector-effect="none" fill-rule="evenodd" d="M1814.86,592.827 C1814.86,589.513 1812.17,586.827 1808.86,586.827 C1805.54,586.827 1802.86,589.513 1802.86,592.827 C1802.86,596.141 1805.54,598.827 1808.86,598.827 C1812.17,598.827 1814.86,596.141 1814.86,592.827 "/>
<path vector-effect="none" fill-rule="evenodd" d="M1830.8,592.993 C1830.8,589.679 1828.11,586.993 1824.8,586.993 C1821.49,586.993 1818.8,589.679 1818.8,592.993 C1818.8,596.307 1821.49,598.993 1824.8,598.993 C1828.11,598.993 1830.8,596.307 1830.8,592.993 "/>
<path vector-effect="none" fill-rule="evenodd" d="M1846.74,593.361 C1846.74,590.047 1844.06,587.361 1840.74,587.361 C1837.43,587.361 1834.74,590.047 1834.74,593.361 C1834.74,596.674 1837.43,599.361 1840.74,599.361 C1844.06,599.361 1846.74,596.674 1846.74,593.361 "/>
<path vector-effect="none" fill-rule="evenodd" d="M1862.69,595.213 C1862.69,591.9 1860,589.213 1856.69,589.213 C1853.37,589.213 1850.69,591.9 1850.69,595.213 C1850.69,598.527 1853.37,601.213 1856.69,601.213 C1860,601.213 1862.69,598.527 1862.69,595.213 "/>
<path vector-effect="none" fill-rule="evenodd" d="M1878.63,599.724 C1878.63,596.411 1875.94,593.724 1872.63,593.724 C1869.31,593.724 1866.63,596.411 1866.63,599.724 C1866.63,603.038 1869.31,605.724 1872.63,605.724 C1875.94,605.724 1878.63,603.038 1878.63,599.724 "/>
<path vector-effect="none" fill-rule="evenodd" d="M1894.57,601.063 C1894.57,597.749 1891.89,595.063 1888.57,595.063 C1885.26,595.063 1882.57,597.749 1882.57,601.063 C1882.57,604.377 1885.26,607.063 1888.57,607.063 C1891.89,607.063 1894.57,604.377 1894.57,601.063 "/>
<path vector-effect="none" fill-rule="evenodd" d="M1910.51,602.679 C1910.51,599.365 1907.83,596.679 1904.51,596.679 C1901.2,596.679 1898.51,599.365 1898.51,602.679 C1898.51,605.993 1901.2,608.679 1904.51,608.679 C1907.83,608.679 1910.51,605.993 1910.51,602.679 "/>
<path vector-effect="none" fill-rule="evenodd" d="M1926.46,604.582 C1926.46,601.268 1923.77,598.582 1920.46,598.582 C1917.14,598.582 1914.46,601.268 1914.46,604.582 C1914.46,607.895 1917.14,610.582 1920.46,610.582 C1923.77,610.582 1926.46,607.895 1926.46,604.582 "/>
<path vector-effect="none" fill-rule="evenodd" d="M1942.4,607.095 C1942.4,603.781 1939.71,601.095 1936.4,601.095 C1933.09,601.095 1930.4,603.781 1930.4,607.095 C1930.4,610.408 1933.09,613.095 1936.4,613.095 C1939.71,613.095 1942.4,610.408 1942.4,607.095 "/>
<path vector-effect="none" fill-rule="evenodd" d="M1958.34,611.608 C1958.34,608.294 1955.66,605.608 1952.34,605.608 C1949.03,605.608 1946.34,608.294 1946.34,611.608 C1946.34,614.922 1949.03,617.608 1952.34,617.608 C1955.66,617.608 1958.34,614.922 1958.34,611.608 "/>
<path vector-effect="none" fill-rule="evenodd" d="M1974.29,613.481 C1974.29,610.167 1971.6,607.481 1968.29,607.481 C1964.97,607.481 1962.29,610.167 1962.29,613.481 C1962.29,616.795 1964.97,619.481 1968.29,619.481 C1971.6,619.481 1974.29,616.795 1974.29,613.481 "/>
<path vector-effect="none" fill-rule="evenodd" d="M1990.23,616.603 C1990.23,613.289 1987.54,610.603 1984.23,610.603 C1980.91,610.603 1978.23,613.289 1978.23,616.603 C1978.23,619.916 1980.91,622.603 1984.23,622.603 C1987.54,622.603 1990.23,619.916 1990.23,616.603 "/>
<path vector-effect="none" fill-rule="evenodd" d="M2006.17,620.796 C2006.17,617.482 2003.49,614.796 2000.17,614.796 C1996.86,614.796 1994.17,617.482 1994.17,620.796 C1994.17,624.11 1996.86,626.796 2000.17,626.796 C2003.49,626.796 2006.17,624.11 2006.17,620.796 "/>
<path vector-effect="none" fill-rule="evenodd" d="M2022.11,627.441 C2022.11,624.127 2019.43,621.441 2016.11,621.441 C2012.8,621.441 2010.11,624.127 2010.11,627.441 C2010.11,630.755 2012.8,633.441 2016.11,633.441 C2019.43,633.441 2022.11,630.755 2022.11,627.441 "/>
<path vector-effect="none" fill-rule="evenodd" d="M2038.06,633.241 C2038.06,629.928 2035.37,627.241 2032.06,627.241 C2028.74,627.241 2026.06,629.928 2026.06,633.241 C2026.06,636.555 2028.74,639.241 2032.06,639.241 C2035.37,639.241 2038.06,636.555 2038.06,633.241 "/>
<path vector-effect="none" fill-rule="evenodd" d="M2054,664.042 C2054,660.728 2051.31,658.042 2048,658.042 C2044.69,658.042 2042,660.728 2042,664.042 C2042,667.356 2044.69,670.042 2048,670.042 C2051.31,670.042 2054,667.356 2054,664.042 "/>
<path vector-effect="none" fill-rule="evenodd" d="M2069.94,942.221 C2069.94,938.907 2067.26,936.221 2063.94,936.221 C2060.63,936.221 2057.94,938.907 2057.94,942.221 C2057.94,945.535 2060.63,948.221 2063.94,948.221 C2067.26,948.221 2069.94,945.535 2069.94,942.221 "/>
<path vector-effect="none" fill-rule="evenodd" d="M2085.89,960.263 C2085.89,956.949 2083.2,954.263 2079.89,954.263 C2076.57,954.263 2073.89,956.949 2073.89,960.263 C2073.89,963.576 2076.57,966.263 2079.89,966.263 C2083.2,966.263 2085.89,963.576 2085.89,960.263 "/>
<path vector-effect="none" fill-rule="evenodd" d="M2101.83,961.781 C2101.83,958.467 2099.14,955.781 2095.83,955.781 C2092.51,955.781 2089.83,958.467 2089.83,961.781 C2089.83,965.095 2092.51,967.781 2095.83,967.781 C2099.14,967.781 2101.83,965.095 2101.83,961.781 "/>
<path vector-effect="none" fill-rule="evenodd" d="M2117.77,973.542 C2117.77,970.229 2115.09,967.542 2111.77,967.542 C2108.46,967.542 2105.77,970.229 2105.77,973.542 C2105.77,976.856 2108.46,979.542 2111.77,979.542 C2115.09,979.542 2117.77,976.856 2117.77,973.542 "/>
<path vector-effect="none" fill-rule="evenodd" d="M2133.71,974.751 C2133.71,971.437 2131.03,968.751 2127.71,968.751 C2124.4,968.751 2121.71,971.437 2121.71,974.751 C2121.71,978.064 2124.4,980.751 2127.71,980.751 C2131.03,980.751 2133.71,978.064 2133.71,974.751 "/>
<path vector-effect="none" fill-rule="evenodd" d="M2149.66,985.582 C2149.66,982.269 2146.97,979.582 2143.66,979.582 C2140.34,979.582 2137.66,982.269 2137.66,985.582 C2137.66,988.896 2140.34,991.582 2143.66,991.582 C2146.97,991.582 2149.66,988.896 2149.66,985.582 "/>
<path vector-effect="none" fill-rule="evenodd" d="M2165.6,990.932 C2165.6,987.619 2162.91,984.932 2159.6,984.932 C2156.29,984.932 2153.6,987.619 2153.6,990.932 C2153.6,994.246 2156.29,996.932 2159.6,996.932 C2162.91,996.932 2165.6,994.246 2165.6,990.932 "/>
<path vector-effect="none" fill-rule="evenodd" d="M2181.54,997.921 C2181.54,994.607 2178.86,991.921 2175.54,991.921 C2172.23,991.921 2169.54,994.607 2169.54,997.921 C2169.54,1001.23 2172.23,1003.92 2175.54,1003.92 C2178.86,1003.92 2181.54,1001.23 2181.54,997.921 "/>
<path vector-effect="none" fill-rule="evenodd" d="M2197.49,1009.25 C2197.49,1005.94 2194.8,1003.25 2191.49,1003.25 C2188.17,1003.25 2185.49,1005.94 2185.49,1009.25 C2185.49,1012.57 2188.17,1015.25 2191.49,1015.25 C2194.8,1015.25 2197.49,1012.57 2197.49,1009.25 "/>
<path vector-effect="none" fill-rule="evenodd" d="M2213.43,1011.84 C2213.43,1008.53 2210.74,1005.84 2207.43,1005.84 C2204.12,1005.84 2201.43,1008.53 2201.43,1011.84 C2201.43,1015.16 2204.12,1017.84 2207.43,1017.84 C2210.74,1017.84 2213.43,1015.16 2213.43,1011.84 "/>
<path vector-effect="none" fill-rule="evenodd" d="M2229.37,1026.35 C2229.37,1023.03 2226.69,1020.35 2223.37,1020.35 C2220.06,1020.35 2217.37,1023.03 2217.37,1026.35 C2217.37,1029.66 2220.06,1032.35 2223.37,1032.35 C2226.69,1032.35 2229.37,1029.66 2229.37,1026.35 "/>
<path vector-effect="none" fill-rule="evenodd" d="M2245.31,1034.4 C2245.31,1031.08 2242.63,1028.4 2239.31,1028.4 C2236,1028.4 2233.31,1031.08 2233.31,1034.4 C2233.31,1037.71 2236,1040.4 2239.31,1040.4 C2242.63,1040.4 2245.31,1037.71 2245.31,1034.4 "/>
<path vector-effect="none" fill-rule="evenodd" d="M2261.26,1040.69 C2261.26,1037.38 2258.57,1034.69 2255.26,1034.69 C2251.94,1034.69 2249.26,1037.38 2249.26,1040.69 C2249.26,1044 2251.94,1046.69 2255.26,1046.69 C2258.57,1046.69 2261.26,1044 2261.26,1040.69 "/>
<path vector-effect="none" fill-rule="evenodd" d="M2277.2,1061.38 C2277.2,1058.06 2274.51,1055.38 2271.2,1055.38 C2267.89,1055.38 2265.2,1058.06 2265.2,1061.38 C2265.2,1064.69 2267.89,1067.38 2271.2,1067.38 C2274.51,1067.38 2277.2,1064.69 2277.2,1061.38 "/>
<path vector-effect="none" fill-rule="evenodd" d="M2293.14,1068.67 C2293.14,1065.35 2290.46,1062.67 2287.14,1062.67 C2283.83,1062.67 2281.14,1065.35 2281.14,1068.67 C2281.14,1071.98 2283.83,1074.67 2287.14,1074.67 C2290.46,1074.67 2293.14,1071.98 2293.14,1068.67 "/>
<path vector-effect="none" fill-rule="evenodd" d="M2309.09,1100.3 C2309.09,1096.99 2306.4,1094.3 2303.09,1094.3 C2299.77,1094.3 2297.09,1096.99 2297.09,1100.3 C2297.09,1103.62 2299.77,1106.3 2303.09,1106.3 C2306.4,1106.3 2309.09,1103.62 2309.09,1100.3 "/>
<path vector-effect="none" fill-rule="evenodd" d="M2325.03,1116.87 C2325.03,1113.56 2322.34,1110.87 2319.03,1110.87 C2315.71,1110.87 2313.03,1113.56 2313.03,1116.87 C2313.03,1120.18 2315.71,1122.87 2319.03,1122.87 C2322.34,1122.87 2325.03,1120.18 2325.03,1116.87 "/>
<path vector-effect="none" fill-rule="evenodd" d="M2340.97,1119.67 C2340.97,1116.35 2338.29,1113.67 2334.97,1113.67 C2331.66,1113.67 2328.97,1116.35 2328.97,1119.67 C2328.97,1122.98 2331.66,1125.67 2334.97,1125.67 C2338.29,1125.67 2340.97,1122.98 2340.97,1119.67 "/>
<path vector-effect="none" fill-rule="evenodd" d="M2356.91,1122.22 C2356.91,1118.91 2354.23,1116.22 2350.91,1116.22 C2347.6,1116.22 2344.91,1118.91 2344.91,1122.22 C2344.91,1125.54 2347.6,1128.22 2350.91,1128.22 C2354.23,1128.22 2356.91,1125.54 2356.91,1122.22 "/>
<path vector-effect="none" fill-rule="evenodd" d="M2372.86,1133.71 C2372.86,1130.39 2370.17,1127.71 2366.86,1127.71 C2363.54,1127.71 2360.86,1130.39 2360.86,1133.71 C2360.86,1137.02 2363.54,1139.71 2366.86,1139.71 C2370.17,1139.71 2372.86,1137.02 2372.86,1133.71 "/>
<path vector-effect="none" fill-rule="evenodd" d="M2388.8,1145.69 C2388.8,1142.37 2386.11,1139.69 2382.8,1139.69 C2379.49,1139.69 2376.8,1142.37 2376.8,1145.69 C2376.8,1149 2379.49,1151.69 2382.8,1151.69 C2386.11,1151.69 2388.8,1149 2388.8,1145.69 "/>
<path vector-effect="none" fill-rule="evenodd" d="M2404.74,1149.64 C2404.74,1146.32 2402.06,1143.64 2398.74,1143.64 C2395.43,1143.64 2392.74,1146.32 2392.74,1149.64 C2392.74,1152.95 2395.43,1155.64 2398.74,1155.64 C2402.06,1155.64 2404.74,1152.95 2404.74,1149.64 "/>
</g>
</g>
</svg>
